<mxfile host="65bd71144e">
    <diagram id="Xnh4IpOT8QbXeBZVWFDN" name="Page-1">
        <mxGraphModel dx="776" dy="704" grid="1" gridSize="10" guides="1" tooltips="1" connect="1" arrows="1" fold="1" page="1" pageScale="1" pageWidth="827" pageHeight="1169" math="0" shadow="0">
            <root>
                <mxCell id="0"/>
                <mxCell id="1" parent="0"/>
                <mxCell id="2" value="" style="whiteSpace=wrap;html=1;" vertex="1" parent="1">
                    <mxGeometry x="120" y="140" width="450" height="450" as="geometry"/>
                </mxCell>
                <mxCell id="3" value="" style="whiteSpace=wrap;html=1;" vertex="1" parent="1">
                    <mxGeometry x="160" y="160" width="370" height="333.4" as="geometry"/>
                </mxCell>
                <mxCell id="4" value="" style="shape=stencil(lVbLbgIxDPyavY4SOy+fKf0PJJayKmXRQl9/36y2Ki0WqXwLYSb2ZBx7O16d95tT35E7X6bxuX8ftpd9xw8d0XDc99NwqauO1x2vduPUP03j63G7/D5tZuS8ehnf5hM+Fp53Ds7NNHKfy9bPxuNCOAzH/wipmAiEGEyEiCAmQoZPJoJAyETwBLHl5BPYlpQXFFsMYgSbjvmqbHZz9dsWgwNctDEyQr7PKBnxLyE4SCNEjrcRQkDk+4REKkIB+fuEqIvWQxplzkpDjE3zSGmIBdLyTmmoqrgRQUlIEakhQeNrQg3b9DMluIYJGh9QGi5rfC0jE762gcYTVfhS77NRExpfi850fkIy4QuiRa84kMVf8SgWf4XBpnwCcqPhaXyCs9y/ZDjT+fXNW+pTBNQYhbrBXzvfN6EurqN6NxwOy6T//f/taK9by2cBr78A);fillColor=none;" vertex="1" parent="1">
                    <mxGeometry x="271" y="180" width="1.2" height="293.4" as="geometry"/>
                </mxCell>
                <mxCell id="5" value="" style="shape=stencil(lVbLbgIxDPyavY4SOy+fKf0PJJayKmXRQl9/36y2Ki0WqXwLYSb2ZBx7O16d95tT35E7X6bxuX8ftpd9xw8d0XDc99NwqauO1x2vduPUP03j63G7/D5tZuS8ehnf5hM+Fp53Ds7NNHKfy9bPxuNCOAzH/wipmAiEGEyEiCAmQoZPJoJAyETwBLHl5BPYlpQXFFsMYgSbjvmqbHZz9dsWgwNctDEyQr7PKBnxLyE4SCNEjrcRQkDk+4REKkIB+fuEqIvWQxplzkpDjE3zSGmIBdLyTmmoqrgRQUlIEakhQeNrQg3b9DMluIYJGh9QGi5rfC0jE762gcYTVfhS77NRExpfi850fkIy4QuiRa84kMVf8SgWf4XBpnwCcqPhaXyCs9y/ZDjT+fXNW+pTBNQYhbrBXzvfN6EurqN6NxwOy6T//f/taK9by2cBr78A);fillColor=none;" vertex="1" parent="1">
                    <mxGeometry x="408" y="180" width="1.2" height="293.4" as="geometry"/>
                </mxCell>
                <mxCell id="6" value="" style="shape=stencil(lVbLbgIxDPyavY4SOy+fKf0PJJayKmXRQl9/36y2Ki0WqXwLYSb2ZBx7O16d95tT35E7X6bxuX8ftpd9xw8d0XDc99NwqauO1x2vduPUP03j63G7/D5tZuS8ehnf5hM+Fp53Ds7NNHKfy9bPxuNCOAzH/wipmAiEGEyEiCAmQoZPJoJAyETwBLHl5BPYlpQXFFsMYgSbjvmqbHZz9dsWgwNctDEyQr7PKBnxLyE4SCNEjrcRQkDk+4REKkIB+fuEqIvWQxplzkpDjE3zSGmIBdLyTmmoqrgRQUlIEakhQeNrQg3b9DMluIYJGh9QGi5rfC0jE762gcYTVfhS77NRExpfi850fkIy4QuiRa84kMVf8SgWf4XBpnwCcqPhaXyCs9y/ZDjT+fXNW+pTBNQYhbrBXzvfN6EurqN6NxwOy6T//f/taK9by2cBr78A);fillColor=none;rotation=-90;" vertex="1" parent="1">
                    <mxGeometry x="344.4" y="120" width="1.2" height="293.4" as="geometry"/>
                </mxCell>
                <mxCell id="7" value="" style="shape=stencil(lVbLbgIxDPyavY4SOy+fKf0PJJayKmXRQl9/36y2Ki0WqXwLYSb2ZBx7O16d95tT35E7X6bxuX8ftpd9xw8d0XDc99NwqauO1x2vduPUP03j63G7/D5tZuS8ehnf5hM+Fp53Ds7NNHKfy9bPxuNCOAzH/wipmAiEGEyEiCAmQoZPJoJAyETwBLHl5BPYlpQXFFsMYgSbjvmqbHZz9dsWgwNctDEyQr7PKBnxLyE4SCNEjrcRQkDk+4REKkIB+fuEqIvWQxplzkpDjE3zSGmIBdLyTmmoqrgRQUlIEakhQeNrQg3b9DMluIYJGh9QGi5rfC0jE762gcYTVfhS77NRExpfi850fkIy4QuiRa84kMVf8SgWf4XBpnwCcqPhaXyCs9y/ZDjT+fXNW+pTBNQYhbrBXzvfN6EurqN6NxwOy6T//f/taK9by2cBr78A);fillColor=none;rotation=-90;" vertex="1" parent="1">
                    <mxGeometry x="345.6" y="240" width="1.2" height="293.4" as="geometry"/>
                </mxCell>
                <mxCell id="8" value="&lt;font style=&quot;font-size: 47px&quot;&gt;X&lt;/font&gt;" style="text;html=1;resizable=0;autosize=1;align=center;verticalAlign=middle;points=[];fillColor=none;strokeColor=none;rounded=0;" vertex="1" parent="1">
                    <mxGeometry x="310" y="310" width="50" height="30" as="geometry"/>
                </mxCell>
                <mxCell id="9" value="&lt;span style=&quot;font-size: 47px&quot;&gt;O&lt;/span&gt;" style="text;html=1;resizable=0;autosize=1;align=center;verticalAlign=middle;points=[];fillColor=none;strokeColor=none;rounded=0;" vertex="1" parent="1">
                    <mxGeometry x="310" y="200" width="50" height="30" as="geometry"/>
                </mxCell>
                <mxCell id="10" value="&lt;font style=&quot;font-size: 20px&quot;&gt;player turn: X&lt;/font&gt;" style="ellipse;whiteSpace=wrap;html=1;fontSize=47;" vertex="1" parent="1">
                    <mxGeometry x="130" y="505" width="140" height="80" as="geometry"/>
                </mxCell>
                <mxCell id="13" value="&lt;font style=&quot;font-size: 20px&quot;&gt;winner: X&lt;/font&gt;" style="ellipse;whiteSpace=wrap;html=1;fontSize=47;" vertex="1" parent="1">
                    <mxGeometry x="390" y="505" width="140" height="80" as="geometry"/>
                </mxCell>
            </root>
        </mxGraphModel>
    </diagram>
</mxfile>